<?xml version="1.0" encoding="UTF-8"?>
<svg xmlns="http://www.w3.org/2000/svg" xmlns:xlink="http://www.w3.org/1999/xlink" width="30pt" height="30pt" viewBox="0 0 30 30" version="1.1">
<g id="surface1">
<path style=" stroke:none;fill-rule:nonzero;fill:rgb(0%,0%,0%);fill-opacity:1;" d="M 2.566406 3.96875 L 27.464844 3.96875 C 28.792969 3.96875 29.902344 4.984375 30.019531 6.304688 L 16.679688 17.621094 C 15.722656 18.4375 14.316406 18.4375 13.359375 17.621094 L 0.0117188 6.316406 C 0.125 4.988281 1.234375 3.96875 2.566406 3.96875 Z M 2.566406 25.996094 C 2.003906 25.996094 1.460938 25.8125 1.011719 25.46875 L 8.457031 17.855469 C 8.597656 17.714844 8.648438 17.515625 8.597656 17.324219 C 8.542969 17.136719 8.394531 16.992188 8.207031 16.941406 C 8.015625 16.894531 7.816406 16.953125 7.679688 17.09375 L 0.304688 24.636719 C 0.105469 24.265625 0 23.851562 0 23.429688 L 0 7.734375 L 12.65625 18.453125 C 14.019531 19.613281 16.023438 19.613281 17.386719 18.449219 L 30.03125 7.726562 L 30.03125 23.429688 C 30.03125 23.851562 29.925781 24.269531 29.726562 24.640625 L 22.304688 17.09375 C 22.09375 16.878906 21.75 16.878906 21.539062 17.085938 C 21.324219 17.296875 21.320312 17.640625 21.527344 17.855469 L 29.015625 25.472656 C 28.570312 25.8125 28.023438 25.996094 27.464844 25.996094 Z M 2.566406 25.996094 "/>
</g>
</svg>
